<svg xmlns="http://www.w3.org/2000/svg" xmlns:xlink="http://www.w3.org/1999/xlink" version="1.1" width="25" height="25" viewBox="0 0 256 256" xml:space="preserve">

<defs>
</defs>
<g style="stroke: none; stroke-width: 0; stroke-dasharray: none; stroke-linecap: butt; stroke-linejoin: miter; stroke-miterlimit: 10; fill: none; fill-rule: nonzero; opacity: 1;" transform="translate(1.4065934065934016 1.4065934065934016) scale(2.81 2.81)" >
	<rect x="69.46" y="12.29" rx="0" ry="0" width="8.54" height="8.54" style="stroke: none; stroke-width: 1; stroke-dasharray: none; stroke-linecap: butt; stroke-linejoin: miter; stroke-miterlimit: 10; fill: rgb(110,119,224); fill-rule: nonzero; opacity: 1;" transform=" matrix(1 0 0 1 0 0) "/>
	<rect x="69.46" y="69.17" rx="0" ry="0" width="8.54" height="8.54" style="stroke: none; stroke-width: 1; stroke-dasharray: none; stroke-linecap: butt; stroke-linejoin: miter; stroke-miterlimit: 10; fill: rgb(110,119,224); fill-rule: nonzero; opacity: 1;" transform=" matrix(1 0 0 1 0 0) "/>
	<rect x="11.99" y="12.29" rx="0" ry="0" width="8.54" height="8.54" style="stroke: none; stroke-width: 1; stroke-dasharray: none; stroke-linecap: butt; stroke-linejoin: miter; stroke-miterlimit: 10; fill: rgb(110,119,224); fill-rule: nonzero; opacity: 1;" transform=" matrix(-1 -1.224647e-16 1.224647e-16 -1 32.5285 33.1238) "/>
	<rect x="80.46" y="40.73" rx="0" ry="0" width="8.54" height="8.54" style="stroke: none; stroke-width: 1; stroke-dasharray: none; stroke-linecap: butt; stroke-linejoin: miter; stroke-miterlimit: 10; fill: rgb(110,119,224); fill-rule: nonzero; opacity: 1;" transform=" matrix(1 0 0 1 0 0) "/>
	<rect x="1" y="40.73" rx="0" ry="0" width="8.54" height="8.54" style="stroke: none; stroke-width: 1; stroke-dasharray: none; stroke-linecap: butt; stroke-linejoin: miter; stroke-miterlimit: 10; fill: rgb(110,119,224); fill-rule: nonzero; opacity: 1;" transform=" matrix(-1 -1.224647e-16 1.224647e-16 -1 10.543 90) "/>
	<rect x="11.99" y="69.17" rx="0" ry="0" width="8.54" height="8.54" style="stroke: none; stroke-width: 1; stroke-dasharray: none; stroke-linecap: butt; stroke-linejoin: miter; stroke-miterlimit: 10; fill: rgb(110,119,224); fill-rule: nonzero; opacity: 1;" transform=" matrix(-1 -1.224647e-16 1.224647e-16 -1 32.5285 146.8762) "/>
	<rect x="40.73" y="80.46" rx="0" ry="0" width="8.54" height="8.54" style="stroke: none; stroke-width: 1; stroke-dasharray: none; stroke-linecap: butt; stroke-linejoin: miter; stroke-miterlimit: 10; fill: rgb(110,119,224); fill-rule: nonzero; opacity: 1;" transform=" matrix(3.267949e-7 1 -1 3.267949e-7 129.7285 39.7284) "/>
	<rect x="40.73" y="1" rx="0" ry="0" width="8.54" height="8.54" style="stroke: none; stroke-width: 1; stroke-dasharray: none; stroke-linecap: butt; stroke-linejoin: miter; stroke-miterlimit: 10; fill: rgb(110,119,224); fill-rule: nonzero; opacity: 1;" transform=" matrix(-3.267949e-7 -1 1 -3.267949e-7 39.7285 50.2715) "/>
	<circle cx="44.996" cy="44.996" r="22.326" style="stroke: none; stroke-width: 1; stroke-dasharray: none; stroke-linecap: butt; stroke-linejoin: miter; stroke-miterlimit: 10; fill: rgb(110,119,224); fill-rule: nonzero; opacity: 1;" transform="  matrix(1 0 0 1 0 0) "/>
	<path d="M 45 68.326 c -12.862 0 -23.326 -10.464 -23.326 -23.326 S 32.138 21.674 45 21.674 S 68.326 32.138 68.326 45 S 57.862 68.326 45 68.326 z M 45 23.674 c -11.759 0 -21.326 9.567 -21.326 21.326 c 0 11.76 9.567 21.326 21.326 21.326 c 11.76 0 21.326 -9.566 21.326 -21.326 C 66.326 33.241 56.76 23.674 45 23.674 z" style="stroke: none; stroke-width: 1; stroke-dasharray: none; stroke-linecap: butt; stroke-linejoin: miter; stroke-miterlimit: 10; fill: rgb(0,0,0); fill-rule: nonzero; opacity: 1;" transform=" matrix(1 0 0 1 0 0) " stroke-linecap="round" />
	<path d="M 33.909 26.598 c -0.382 0 -0.747 -0.221 -0.913 -0.592 l -3.911 -8.742 h -8.549 c -0.552 0 -1 -0.448 -1 -1 s 0.448 -1 1 -1 h 9.197 c 0.395 0 0.752 0.232 0.913 0.592 l 4.176 9.333 c 0.226 0.504 0 1.096 -0.504 1.321 C 34.184 26.569 34.045 26.598 33.909 26.598 z" style="stroke: none; stroke-width: 1; stroke-dasharray: none; stroke-linecap: butt; stroke-linejoin: miter; stroke-miterlimit: 10; fill: rgb(0,0,0); fill-rule: nonzero; opacity: 1;" transform=" matrix(1 0 0 1 0 0) " stroke-linecap="round" />
	<path d="M 56.091 26.598 c -0.136 0 -0.274 -0.028 -0.407 -0.088 c -0.504 -0.225 -0.73 -0.817 -0.505 -1.321 l 4.176 -9.333 c 0.161 -0.36 0.519 -0.592 0.913 -0.592 h 9.196 c 0.553 0 1 0.448 1 1 s -0.447 1 -1 1 h -8.548 l -3.911 8.742 C 56.839 26.377 56.474 26.598 56.091 26.598 z" style="stroke: none; stroke-width: 1; stroke-dasharray: none; stroke-linecap: butt; stroke-linejoin: miter; stroke-miterlimit: 10; fill: rgb(0,0,0); fill-rule: nonzero; opacity: 1;" transform=" matrix(1 0 0 1 0 0) " stroke-linecap="round" />
	<path d="M 29.732 74.736 h -9.197 c -0.552 0 -1 -0.447 -1 -1 s 0.448 -1 1 -1 h 8.549 l 3.911 -8.741 c 0.225 -0.506 0.818 -0.728 1.321 -0.505 c 0.504 0.226 0.73 0.817 0.504 1.321 l -4.176 9.333 C 30.484 74.505 30.127 74.736 29.732 74.736 z" style="stroke: none; stroke-width: 1; stroke-dasharray: none; stroke-linecap: butt; stroke-linejoin: miter; stroke-miterlimit: 10; fill: rgb(0,0,0); fill-rule: nonzero; opacity: 1;" transform=" matrix(1 0 0 1 0 0) " stroke-linecap="round" />
	<path d="M 69.464 74.736 h -9.196 c -0.395 0 -0.752 -0.231 -0.913 -0.592 l -4.176 -9.333 c -0.226 -0.504 0.001 -1.096 0.505 -1.321 c 0.507 -0.223 1.097 0 1.321 0.505 l 3.911 8.741 h 8.548 c 0.553 0 1 0.447 1 1 S 70.017 74.736 69.464 74.736 z" style="stroke: none; stroke-width: 1; stroke-dasharray: none; stroke-linecap: butt; stroke-linejoin: miter; stroke-miterlimit: 10; fill: rgb(0,0,0); fill-rule: nonzero; opacity: 1;" transform=" matrix(1 0 0 1 0 0) " stroke-linecap="round" />
	<path d="M 78.007 21.833 h -8.543 c -0.553 0 -1 -0.448 -1 -1 v -8.543 c 0 -0.552 0.447 -1 1 -1 h 8.543 c 0.553 0 1 0.448 1 1 v 8.543 C 79.007 21.386 78.56 21.833 78.007 21.833 z M 70.464 19.833 h 6.543 v -6.543 h -6.543 V 19.833 z" style="stroke: none; stroke-width: 1; stroke-dasharray: none; stroke-linecap: butt; stroke-linejoin: miter; stroke-miterlimit: 10; fill: rgb(0,0,0); fill-rule: nonzero; opacity: 1;" transform=" matrix(1 0 0 1 0 0) " stroke-linecap="round" />
	<path d="M 78.007 78.71 h -8.543 c -0.553 0 -1 -0.447 -1 -1 v -8.543 c 0 -0.553 0.447 -1 1 -1 h 8.543 c 0.553 0 1 0.447 1 1 v 8.543 C 79.007 78.263 78.56 78.71 78.007 78.71 z M 70.464 76.71 h 6.543 v -6.543 h -6.543 V 76.71 z" style="stroke: none; stroke-width: 1; stroke-dasharray: none; stroke-linecap: butt; stroke-linejoin: miter; stroke-miterlimit: 10; fill: rgb(0,0,0); fill-rule: nonzero; opacity: 1;" transform=" matrix(1 0 0 1 0 0) " stroke-linecap="round" />
	<path d="M 20.536 21.833 h -8.543 c -0.552 0 -1 -0.448 -1 -1 v -8.543 c 0 -0.552 0.448 -1 1 -1 h 8.543 c 0.552 0 1 0.448 1 1 v 8.543 C 21.536 21.386 21.088 21.833 20.536 21.833 z M 12.993 19.833 h 6.543 v -6.543 h -6.543 V 19.833 z" style="stroke: none; stroke-width: 1; stroke-dasharray: none; stroke-linecap: butt; stroke-linejoin: miter; stroke-miterlimit: 10; fill: rgb(0,0,0); fill-rule: nonzero; opacity: 1;" transform=" matrix(1 0 0 1 0 0) " stroke-linecap="round" />
	<path d="M 22.674 46 H 9.543 c -0.552 0 -1 -0.448 -1 -1 s 0.448 -1 1 -1 h 13.131 c 0.552 0 1 0.448 1 1 S 23.226 46 22.674 46 z" style="stroke: none; stroke-width: 1; stroke-dasharray: none; stroke-linecap: butt; stroke-linejoin: miter; stroke-miterlimit: 10; fill: rgb(0,0,0); fill-rule: nonzero; opacity: 1;" transform=" matrix(1 0 0 1 0 0) " stroke-linecap="round" />
	<path d="M 80.457 46 H 67.326 c -0.553 0 -1 -0.448 -1 -1 s 0.447 -1 1 -1 h 13.131 c 0.553 0 1 0.448 1 1 S 81.01 46 80.457 46 z" style="stroke: none; stroke-width: 1; stroke-dasharray: none; stroke-linecap: butt; stroke-linejoin: miter; stroke-miterlimit: 10; fill: rgb(0,0,0); fill-rule: nonzero; opacity: 1;" transform=" matrix(1 0 0 1 0 0) " stroke-linecap="round" />
	<path d="M 89 50.271 h -8.543 c -0.553 0 -1 -0.447 -1 -1 v -8.543 c 0 -0.552 0.447 -1 1 -1 H 89 c 0.553 0 1 0.448 1 1 v 8.543 C 90 49.824 89.553 50.271 89 50.271 z M 81.457 48.271 H 88 v -6.543 h -6.543 V 48.271 z" style="stroke: none; stroke-width: 1; stroke-dasharray: none; stroke-linecap: butt; stroke-linejoin: miter; stroke-miterlimit: 10; fill: rgb(0,0,0); fill-rule: nonzero; opacity: 1;" transform=" matrix(1 0 0 1 0 0) " stroke-linecap="round" />
	<path d="M 9.543 50.271 H 1 c -0.552 0 -1 -0.447 -1 -1 v -8.543 c 0 -0.552 0.448 -1 1 -1 h 8.543 c 0.552 0 1 0.448 1 1 v 8.543 C 10.543 49.824 10.095 50.271 9.543 50.271 z M 2 48.271 h 6.543 v -6.543 H 2 V 48.271 z" style="stroke: none; stroke-width: 1; stroke-dasharray: none; stroke-linecap: butt; stroke-linejoin: miter; stroke-miterlimit: 10; fill: rgb(0,0,0); fill-rule: nonzero; opacity: 1;" transform=" matrix(1 0 0 1 0 0) " stroke-linecap="round" />
	<path d="M 20.536 78.71 h -8.543 c -0.552 0 -1 -0.447 -1 -1 v -8.543 c 0 -0.553 0.448 -1 1 -1 h 8.543 c 0.552 0 1 0.447 1 1 v 8.543 C 21.536 78.263 21.088 78.71 20.536 78.71 z M 12.993 76.71 h 6.543 v -6.543 h -6.543 V 76.71 z" style="stroke: none; stroke-width: 1; stroke-dasharray: none; stroke-linecap: butt; stroke-linejoin: miter; stroke-miterlimit: 10; fill: rgb(0,0,0); fill-rule: nonzero; opacity: 1;" transform=" matrix(1 0 0 1 0 0) " stroke-linecap="round" />
	<path d="M 45 68.326 c -12.862 0 -23.326 -10.464 -23.326 -23.326 S 32.138 21.674 45 21.674 S 68.326 32.138 68.326 45 S 57.862 68.326 45 68.326 z M 45 23.674 c -11.759 0 -21.326 9.567 -21.326 21.326 c 0 11.76 9.567 21.326 21.326 21.326 c 11.76 0 21.326 -9.566 21.326 -21.326 C 66.326 33.241 56.76 23.674 45 23.674 z" style="stroke: none; stroke-width: 1; stroke-dasharray: none; stroke-linecap: butt; stroke-linejoin: miter; stroke-miterlimit: 10; fill: rgb(0,0,0); fill-rule: nonzero; opacity: 1;" transform=" matrix(1 0 0 1 0 0) " stroke-linecap="round" />
	<path d="M 45 23.674 c -0.552 0 -1 -0.448 -1 -1 V 9.543 c 0 -0.552 0.448 -1 1 -1 s 1 0.448 1 1 v 13.131 C 46 23.226 45.552 23.674 45 23.674 z" style="stroke: none; stroke-width: 1; stroke-dasharray: none; stroke-linecap: butt; stroke-linejoin: miter; stroke-miterlimit: 10; fill: rgb(0,0,0); fill-rule: nonzero; opacity: 1;" transform=" matrix(1 0 0 1 0 0) " stroke-linecap="round" />
	<path d="M 45 81.457 c -0.552 0 -1 -0.447 -1 -1 V 67.326 c 0 -0.553 0.448 -1 1 -1 s 1 0.447 1 1 v 13.131 C 46 81.01 45.552 81.457 45 81.457 z" style="stroke: none; stroke-width: 1; stroke-dasharray: none; stroke-linecap: butt; stroke-linejoin: miter; stroke-miterlimit: 10; fill: rgb(0,0,0); fill-rule: nonzero; opacity: 1;" transform=" matrix(1 0 0 1 0 0) " stroke-linecap="round" />
	<path d="M 49.271 90 h -8.543 c -0.552 0 -1 -0.447 -1 -1 v -8.543 c 0 -0.553 0.448 -1 1 -1 h 8.543 c 0.553 0 1 0.447 1 1 V 89 C 50.271 89.553 49.824 90 49.271 90 z M 41.729 88 h 6.543 v -6.543 h -6.543 V 88 z" style="stroke: none; stroke-width: 1; stroke-dasharray: none; stroke-linecap: butt; stroke-linejoin: miter; stroke-miterlimit: 10; fill: rgb(0,0,0); fill-rule: nonzero; opacity: 1;" transform=" matrix(1 0 0 1 0 0) " stroke-linecap="round" />
	<path d="M 49.271 10.543 h -8.543 c -0.552 0 -1 -0.448 -1 -1 V 1 c 0 -0.552 0.448 -1 1 -1 h 8.543 c 0.553 0 1 0.448 1 1 v 8.543 C 50.271 10.095 49.824 10.543 49.271 10.543 z M 41.729 8.543 h 6.543 V 2 h -6.543 V 8.543 z" style="stroke: none; stroke-width: 1; stroke-dasharray: none; stroke-linecap: butt; stroke-linejoin: miter; stroke-miterlimit: 10; fill: rgb(0,0,0); fill-rule: nonzero; opacity: 1;" transform=" matrix(1 0 0 1 0 0) " stroke-linecap="round" />
	<circle cx="45" cy="45" r="16.5" style="stroke: none; stroke-width: 1; stroke-dasharray: none; stroke-linecap: butt; stroke-linejoin: miter; stroke-miterlimit: 10; fill: rgb(194,206,255); fill-rule: nonzero; opacity: 1;" transform="  matrix(1 0 0 1 0 0) "/>
	<path d="M 45 62.5 c -9.649 0 -17.5 -7.851 -17.5 -17.5 S 35.351 27.5 45 27.5 S 62.5 35.351 62.5 45 S 54.649 62.5 45 62.5 z M 45 29.5 c -8.547 0 -15.5 6.953 -15.5 15.5 S 36.453 60.5 45 60.5 S 60.5 53.547 60.5 45 S 53.547 29.5 45 29.5 z" style="stroke: none; stroke-width: 1; stroke-dasharray: none; stroke-linecap: butt; stroke-linejoin: miter; stroke-miterlimit: 10; fill: rgb(0,0,0); fill-rule: nonzero; opacity: 1;" transform=" matrix(1 0 0 1 0 0) " stroke-linecap="round" />
</g>
</svg>